<?xml version="1.0" encoding="UTF-8"?>
<svg id="Layer_2" data-name="Layer 2" xmlns="http://www.w3.org/2000/svg" xmlns:xlink="http://www.w3.org/1999/xlink" viewBox="0 0 427.66 345.99">
  <defs>
    <style>
      .cls-1 {
        fill: url(#linear-gradient);
      }

      .cls-1, .cls-2, .cls-3, .cls-4, .cls-5, .cls-6, .cls-7, .cls-8, .cls-9, .cls-10, .cls-11, .cls-12, .cls-13, .cls-14, .cls-15, .cls-16, .cls-17, .cls-18, .cls-19, .cls-20, .cls-21, .cls-22, .cls-23, .cls-24, .cls-25, .cls-26, .cls-27, .cls-28, .cls-29, .cls-30, .cls-31, .cls-32, .cls-33, .cls-34, .cls-35, .cls-36, .cls-37, .cls-38, .cls-39, .cls-40, .cls-41, .cls-42, .cls-43 {
        stroke-width: 0px;
      }

      .cls-44 {
        opacity: .5;
      }

      .cls-2 {
        fill: url(#linear-gradient-4);
      }

      .cls-3 {
        fill: url(#linear-gradient-2);
      }

      .cls-4 {
        fill: url(#linear-gradient-3);
      }

      .cls-5 {
        fill: url(#linear-gradient-7);
      }

      .cls-6 {
        fill: url(#linear-gradient-5);
      }

      .cls-7 {
        fill: url(#linear-gradient-6);
      }

      .cls-8 {
        fill: #7741cc;
      }

      .cls-9 {
        fill: #519383;
      }

      .cls-10 {
        fill: #6122c4;
      }

      .cls-11 {
        fill: #7a45cd;
      }

      .cls-12 {
        fill: #8959d3;
      }

      .cls-13 {
        fill: #a37fdd;
      }

      .cls-14 {
        fill: #956bd7;
      }

      .cls-15 {
        fill: #592299;
      }

      .cls-16 {
        fill: #e2c777;
      }

      .cls-17 {
        fill: #d4c3ef;
      }

      .cls-18 {
        fill: #a581dd;
      }

      .cls-19 {
        fill: #ab8ae0;
      }

      .cls-20 {
        fill: #a783de;
      }

      .cls-21 {
        fill: #b5b728;
      }

      .cls-22 {
        fill: #8d60d5;
      }

      .cls-23 {
        fill: #91fe4c;
      }

      .cls-24 {
        fill: #8f62d5;
      }

      .cls-25 {
        fill: #976dd8;
      }

      .cls-26 {
        fill: #9a72d9;
      }

      .cls-27 {
        fill: #986fd9;
      }

      .cls-28 {
        fill: #7d4acf;
      }

      .cls-29 {
        fill: #91db1d;
      }

      .cls-30 {
        fill: #8555d2;
      }

      .cls-31 {
        fill: #8757d2;
      }

      .cls-32 {
        fill: #9469d7;
      }

      .cls-33 {
        fill: #7f4ccf;
      }

      .cls-34 {
        fill: #743dcb;
      }

      .cls-35 {
        fill: #ece4f8;
      }

      .cls-36 {
        fill: #f1e4be;
      }

      .cls-37 {
        fill: #fff;
      }

      .cls-38 {
        fill: #ead79e;
      }

      .cls-39 {
        fill: #e3e4ad;
      }

      .cls-40 {
        fill: #e9d599;
      }

      .cls-41 {
        fill: #ebd9a3;
      }

      .cls-42 {
        fill: #692dc7;
      }

      .cls-43 {
        fill: #6a2fc8;
      }
    </style>
    <linearGradient id="linear-gradient" x1="1331.14" y1="51.77" x2="1327.84" y2="291.75" gradientTransform="translate(-514.55 -5.22) scale(.5)" gradientUnits="userSpaceOnUse">
      <stop offset="0" stop-color="#fff"/>
      <stop offset="1" stop-color="#f0e2b8"/>
    </linearGradient>
    <linearGradient id="linear-gradient-2" x1="1787.8" y1="643.08" x2="1787.48" y2="691.08" gradientTransform="translate(-514.55 -5.22) scale(.5)" gradientUnits="userSpaceOnUse">
      <stop offset="0" stop-color="#a07adc"/>
      <stop offset="1" stop-color="#8959d3"/>
    </linearGradient>
    <linearGradient id="linear-gradient-3" x1="1391.48" y1="641.1" x2="1391.61" y2="691.1" gradientTransform="translate(-514.55 -5.22) scale(.5)" gradientUnits="userSpaceOnUse">
      <stop offset="0" stop-color="#743dcb"/>
      <stop offset="1" stop-color="#692dc7"/>
    </linearGradient>
    <linearGradient id="linear-gradient-4" x1="1094.28" y1="646.56" x2="1097.31" y2="693.46" gradientTransform="translate(-514.55 -5.22) scale(.5)" gradientUnits="userSpaceOnUse">
      <stop offset="0" stop-color="#9f78db"/>
      <stop offset="1" stop-color="#8757d2"/>
    </linearGradient>
    <linearGradient id="linear-gradient-5" x1="1513.57" y1="197.76" x2="1639.4" y2="451.25" gradientTransform="translate(-514.55 -5.22) scale(.5)" gradientUnits="userSpaceOnUse">
      <stop offset="0" stop-color="#9d76da"/>
      <stop offset="1" stop-color="#8d60d5"/>
    </linearGradient>
    <linearGradient id="linear-gradient-6" x1="1180.98" y1="327.78" x2="1177.61" y2="516.75" gradientTransform="translate(-514.55 -5.22) scale(.5)" gradientUnits="userSpaceOnUse">
      <stop offset="0" stop-color="#8757d2"/>
      <stop offset="1" stop-color="#a07adc"/>
    </linearGradient>
    <linearGradient id="linear-gradient-7" x1="1352.6" y1="447.13" x2="1413.9" y2="456.41" gradientTransform="translate(-514.55 -5.22) scale(.5)" gradientUnits="userSpaceOnUse">
      <stop offset="0" stop-color="#a783de"/>
      <stop offset="1" stop-color="#9a72d9"/>
    </linearGradient>
  </defs>
  <g id="Layer_1-2" data-name="Layer 1">
    <g class="cls-44">
      <g>
        <path class="cls-1" d="m298.79,53.42c.46.74,1.22,1.22,1,2.25-5.91-.45-10.51,5.61-12.75,10.75-1.14-1.39-18.58-1.4-19.5-1-1.29.56-.38,2.57-1,3-4.01,2.77-56.5-12.08-77.74,44.24-.75.69-5.53,0-7,.25-9.63-17.99-33.89-18.98-45.49-1.75-1.15,1.71-2.76,6.36-4,8.75-.09.18-.88.35-2,3.5-1.74-.91-4.89-1.42-6.75-.5-11.95-17.7-45.35-16.28-54.74,3-5.91.23-47.23-1.92-49.24-.5-1.92,1.36.93,2.65,2,3,2.67.87,28.69,4.76,41.99,8.5.08.02.95-.98,1.5-.5.31.27.43,4.84.25,5.25-1.07,2.41-47.31-.57-52.74.75l-.25,7c-1.74-.12-3.51.08-5.25,0-14.93-11.38-4.35-33.25,14.25-30.75,3.36-31.54,33.67-59.91,66.24-48.24C129.76,15.5,206.86,3.97,268.04,32.92c6.16,2.92,27.65,15.46,30.75,20.5Z"/>
        <path class="cls-39" d="m313.79,69.92c-3.64-1.23-7.78,4.44-10.5,7-.35-.6-1.27-5-1.75-5l-4.75,11c-.23,0-1.42.85-4.5.5-.13-2.58-.73-5.37-.75-8-3.23-.16-6.53.22-9.75,0-1.13-.08-2.68-.36-4-.5-1.13-.12-4.97.2-5.25,0-.8-.56.19-7.25-.25-8.25-.47-1.07-4.07-.88-4.25-.75-.68.49,0,14.64-.25,16.75l-8.5.25c.11-.79.13-5.21-.25-5.5-7.75,6.64-4.67,7.49-4.75,8-.28,1.84-.62,3.63-.75,5.5-2.25.06-4.51-.09-6.75,0-.18-1.04.36-5.07-.25-5.5-.51-.36-10.38-1.93-7.75,5.5-2.5.18-5.06-.58-6,.75-.04,22.91.05,45.83,0,68.74-17.84-28.16-54.49-26.01-64.49,7-.21-.1-2.18-.39-3-.5-7.93-1.08-28.23,1.47-38.75.5l-11.25,18.5c-2.54-19.06,5.42-18.23-11.75-25.5-9.32-3.94-20.16-6.98-30.25-5.5,7.12-22.35,33.7-29.35,50.99-13.5,1.67.16,13.75-11.68,31.75-5,1.9-6.34,4.77-11.53,9.75-16,4.9-4.39,9.6-6.4,16-7.5,1.47-.25,6.25.44,7-.25,21.25-56.32,73.73-41.48,77.74-44.24.62-.43-.29-2.44,1-3,.92-.4,18.36-.39,19.5,1,2.24-5.14,6.84-11.2,12.75-10.75.22-1.03-.54-1.51-1-2.25,6.22,4.22,10.49,10.65,15,16.5Z"/>
        <path class="cls-39" d="m317.79,74.42c15.43-1.11,26.16,4.41,38,13.5-2.94-.14,4.59,6.77,7,10.75,4.56,7.54,7.13,16.02,8.25,24.75,24.21-5.22,42.33,15.08,30.75,28.5-2.56,2.96-8.91,5.99-12.75,6.5-8.79,1.16-44.74-.87-58.74,0,.04-19.72.02-39.79-.5-59.49-.07-2.82.26-5.7-.25-8.5-.81-.57-16.43.41-19.75,0-1.07-.13-2.21.44-3-.75-.07-1.74.09-3.51,0-5.25-.11-2.1.17-4.39,0-6.5.56-.16,3.51-2.96,11-3.5Z"/>
        <g>
          <path class="cls-38" d="m410.27,155.91c5.24,6.34,5.83,9.02,2.5,16.5-2.3,2.27-6.67,5.49-9.75,6-8.03,1.33-57.01-1.31-72.74.5.05-6.83-.01-13.67,0-20.5,14-.87,49.96,1.16,58.74,0,3.84-.51,10.19-3.54,12.75-6.5,2.79.64,6.52,3.53,8.5,4Z"/>
          <path class="cls-36" d="m355.78,87.92c10.48,8.04,16.59,14.87,21.25,27.5,10.87-5.18,23.47-5.32,34,1,17.48,10.5,26.74,46.06-.75,39.5-1.98-.47-5.71-3.36-8.5-4,11.59-13.41-6.54-33.71-30.75-28.5-1.12-8.72-3.69-17.2-8.25-24.75-2.41-3.98-9.94-10.89-7-10.75Z"/>
        </g>
        <path class="cls-38" d="m68.82,125.91c-3.18,6.53-3.14,16.47-1.5,23.5-.44-.03-.5.45-1,.5-17.85-1.81-36.18.7-53.99-.5l.25-7c5.43-1.32,51.67,1.66,52.74-.75.18-.41.06-4.98-.25-5.25-.55-.48-1.42.52-1.5.5-13.3-3.74-39.33-7.63-41.99-8.5-1.07-.35-3.92-1.64-2-3,2.01-1.42,43.34.73,49.24.5Z"/>
        <path class="cls-35" d="m313.79,69.92c1,1.3,2.86,3.1,4,4.5-7.49.54-10.44,3.34-11,3.5-3.86,1.11-2.99-.12-3.5-1,2.72-2.56,6.86-8.23,10.5-7Z"/>
        <path class="cls-10" d="m392.28,219.4c1.24.9,6.83,6.48,8,8,8.27,10.77,9.04,22.98,3,35-6.29,12.5-19.84,20.43-33,23.75-.06,3.75.08,7.5,0,11.25-2.15-.49-.7-7.96-1-11.25-1.8.28-3.69.39-5.5.25-.17-.01-.34.02-.5,0-2.44-.28-3.22-.48-5.5-1-5.02-1.14-9.57-3.48-14-6-.28-.16-2.92-2.76-5-4-4.67-4.92-7.9-7.98-10.5-14.5-3.24-8.11-3.78-14.4-2-23,.64-3.1,1.92-6.26,3.5-9,12.21-21.12,44.08-22.88,62.49-9.5Z"/>
        <path class="cls-3" d="m370.28,311.89c13.62-.58,31.28-.72,38.5,13.5,3.29,6.49,3.44,13.41,2.75,20.5-21.75.04-43.5-.05-65.24,0,9.1-9.15,17.71-19.55,16.5-33.25.56-1.27,6.15-.69,7.5-.75Z"/>
        <path class="cls-10" d="m33.32,241.4v48.99c-.23.05.68,2.38-4-.5-.79-.49-1.4-1.59-2.5-1.5-1.99-2.85-19.73-15.36-7.5-35.5,3.15-5.18,8.38-9.37,14-11.5Z"/>
        <g>
          <path class="cls-38" d="m392.28,219.4c-18.42-13.38-50.29-11.62-62.49,9.5-.74.05-.49-.92-.5-2,5.82-6.41,12.33-12.46,21-14.75q-7.25-10.87-14.5-21.75c9.12.89,26.59-.66,37.25,0,11.48,6.09,19.1,15.63,19.25,29Z"/>
          <path class="cls-38" d="m335.78,190.4q7.25,10.87,14.5,21.75c-8.67,2.29-15.18,8.34-21,14.75-.17-12.53.31-24.98.5-37.5,4.08-.52,5.7.97,6,1Z"/>
        </g>
        <g>
          <path class="cls-32" d="m130.31,123.41c.16.09,2.57,2.07,2.5,2.75-.09.88-7.77,7.37-8.5,15.25-17.29-15.85-43.88-8.85-50.99,13.5-1.15.17-2.66.73-4,1-.22-2.27-1.5-4.35-2-6.5-1.64-7.03-1.68-16.97,1.5-23.5,9.4-19.28,42.79-20.7,54.74-3,1.86-.92,5.01-.41,6.75.5Z"/>
          <path class="cls-32" d="m181.8,112.91c-6.39,1.1-11.1,3.11-16,7.5-21.6-9.91-29.82,9.12-33.5-.5,1.24-2.39,2.85-7.04,4-8.75,11.61-17.23,35.87-16.24,45.49,1.75Z"/>
        </g>
        <path class="cls-35" d="m165.8,120.41c-4.98,4.46-7.85,9.66-9.75,16-18-6.68-30.08,5.16-31.75,5,.72-7.88,8.41-14.37,8.5-15.25.07-.68-2.34-2.66-2.5-2.75,1.12-3.15,1.91-3.32,2-3.5,3.67,9.62,11.9-9.41,33.5.5Z"/>
        <path class="cls-33" d="m168.3,167.41c.73.34,5.13,6.33,8,7-4.51,5.95-19.85,11.18-17,16-.71.21-1.28.33-2,.5-1.48.35-4.86-.7-5.5.75-.1,1.9.14,3.85,0,5.75l-36.5-.5c.04-1.83-.07-3.67,0-5.5h34.75c1.85-7.52,14-20.02,15.25-22.25.62-1.11.04-1.26,0-2.25.82.11,2.79.4,3,.5Z"/>
        <path class="cls-17" d="m303.29,76.92c.51.88-.36,2.11,3.5,1,.17,2.11-.11,4.4,0,6.5.8-1-8.15-1.52-10-1.5l4.75-11c.48,0,1.4,4.4,1.75,5Z"/>
        <path class="cls-27" d="m246.79,90.91c-2.32.09-4.68-.12-7,0-.33.02-.67-.02-1,0-2.63-7.42,7.24-5.86,7.75-5.5.61.43.07,4.46.25,5.5Z"/>
        <path class="cls-19" d="m259.29,82.92c-.02.14-.73-.14-1.5,2.5h-3.5c.08-.51-3.01-1.36,4.75-8,.38.29.36,4.7.25,5.5Z"/>
        <path class="cls-4" d="m149.81,311.39c8.16.03,16.37-.51,24.5-.5.05,0-.16,1,.25,1,8.08,0,16.21-.51,24.25-.5,14.48.02,29,1.31,43.49,0,5.33,0,10.67.01,16,0,2.83,0,5.67,0,8.5,0,3.47,0,7.13-.53,10.5-.5,2.38.02,5.02.45,7.5.5,5.58.11,11.17-.08,16.75,0,2.37.9,2.19,20.04,1.75,23.25-.33,2.45-3.28,8.32-4,11.25-80.15.09-160.32.19-240.47,0-.4-13.79,1.69-19.35,7-31,.01-.03.18.2.5-.5.08-.16,1.17.62,2-3,7.67.02,15.33-.03,23,0,3.85.02,7.65,0,11.5,0,9.65-.01,19.38-.52,29-.5,5.95.01,12.01.48,18,.5Z"/>
        <path class="cls-2" d="m32.82,314.39c.83,0,1.66,0,2.5,0,10.11-.05,20.36,1.08,30.5.5-5.31,11.65-7.4,17.21-7,31-19.33-.05-38.67.24-57.99-.25-1.21-20.67,7.75-31.28,28.5-31.75.22,0-1.92.55,3.5.5Z"/>
        <path class="cls-25" d="m338.78,275.39c-3.83-2.28-3.66-3.38-9-3.5-1.72-3.06-4.87-8.69-1.5-11,2.6,6.52,5.83,9.58,10.5,14.5Z"/>
        <path class="cls-34" d="m151.31,225.9c.01,3.05.57,5.96.5,9-12.01.3-23.98.81-36,.5,0-3.33,0-6.67,0-10q17.75.25,35.5.5Z"/>
        <path class="cls-34" d="m151.31,209.4c-.07,3.31,0,6.68,0,10h-35.5c.02-3.22-.53-6.67-.5-10h36Z"/>
        <path class="cls-31" d="m156.31,235.4c-.1,2.68-.39,5.36-.5,8h-16.75c-.42.06-.2.99-.25,1-1.55.35-2.99.33-4.5,1-.14-.95.37-1.79-.75-2.5h-17.75c0-2.5,0-5,0-7.5,12.02.31,23.99-.2,36-.5,1.56-.04,2.96.49,4.5.5Z"/>
        <path class="cls-28" d="m151.81,197.4c-.14,1.94-.42,4.1-.5,6h-36c.02-2.17-.04-4.33,0-6.5l36.5.5Z"/>
        <path class="cls-24" d="m151.31,203.4c-.05,1.08.04,3.92,0,6h-36c.02-2-.02-4,0-6h36Z"/>
        <path class="cls-24" d="m151.31,219.4c0,2.16,0,4.34,0,6.5q-17.75-.25-35.5-.5c0-2.02-.01-3.97,0-6h35.5Z"/>
        <path class="cls-33" d="m138.81,244.4c-.09,2.49.12,5.01,0,7.5-.05,1.02.26,5.64-.25,6h-23.25c0-2.17,0-4.33,0-6.5h18.25c.33-1.96,1.05-3.97.75-6,1.51-.67,2.95-.65,4.5-1Z"/>
        <path class="cls-34" d="m134.31,245.4c.3,2.03-.42,4.04-.75,6h-18.25c0-2.82.5-5.78.5-8.5h17.75c1.12.71.61,1.55.75,2.5Z"/>
        <g>
          <path class="cls-38" d="m232.8,160.41c-.06,27.33.04,54.66,0,81.99l-1,.25v-24c-9.5-7.44-23.4-24.93-28.5-29.75-1.8-1.7-17.6-14.19-18.75-14.5-1.47-.4-5.66.36-7.75,0-.16-.03-.34.04-.5,0-2.87-.67-7.27-6.66-8-7,10.01-33.01,46.65-35.16,64.49-7Z"/>
          <path class="cls-38" d="m232.8,242.4v1c-9.81.01-19.71-.42-29.5.5,1.33-12.23-1-40.45,0-54.99,5.1,4.82,18.99,22.31,28.5,29.75v24l1-.25Z"/>
        </g>
        <path class="cls-14" d="m159.31,190.4c-2.85-4.82,12.49-10.05,17-16,.16.04.34-.03.5,0l6.25.5c2.62,1.41-14.88,12.93-23.75,15.5Z"/>
        <path class="cls-14" d="m157.31,190.9c.44,14.86-.42,29.66-1,44.49-1.54-.01-2.94-.54-4.5-.5.07-3.04-.49-5.95-.5-9,0-2.16,0-4.33,0-6.5,0-3.32-.07-6.69,0-10,.04-2.08-.05-4.92,0-6,.08-1.9.36-4.06.5-6,.14-1.9-.1-3.85,0-5.75.64-1.45,4.02-.4,5.5-.75Z"/>
        <path class="cls-26" d="m35.32,292.39v22c-.84,0-1.67,0-2.5,0v-22.25c2.55-1.3,2.34.25,2.5.25Z"/>
        <path class="cls-31" d="m200.3,248.9c.63-.1,1.35.07,2,0-.61,1.81-10.18,15.64-8.75,16.5,1.58.06,3.18-.09,4.75,0-.05.42.12.47.5.5-.81,2.72-.6,6.59-.5,9.5h-1c-6.32.5-12.72-.45-19-.5v-9l7-.25c1.67-3.75.54-11.34-7-8.75.03-2.32-.07-4.69,0-7,2.28.52,4.83-.49,7-.5,2.14,0,4.45.6,6.75.5.41-.02.2-1,.25-1,2.84-.14,4.69.55,8,0Z"/>
        <g>
          <g>
            <path class="cls-34" d="m258.29,311.39c-5.33.01-10.67,0-16,0-3.89-24.61,19.98-24.84,16,0Z"/>
            <path class="cls-34" d="m277.29,310.89c-3.37-.03-7.03.51-10.5.5q.12-9,.25-18l10.25.25v17.25Z"/>
            <g>
              <path class="cls-38" d="m285.29,266.39q-.25,22.5-.5,44.99c-2.48-.05-5.12-.48-7.5-.5v-17.25l-10.25-.25q-.12,9-.25,18c-2.83,0-5.67,0-8.5,0,3.98-24.84-19.89-24.61-16,0-14.5,1.31-29.01.02-43.49,0,.19-12.02-.1-23.98-.5-36-.1-2.91-.31-6.78.5-9.5,7.85.6,71.79.6,86.49.5Z"/>
              <g>
                <path class="cls-34" d="m205.05,293.39l10.25.25-.75,13.75-9.75-.25.25-13.75Z"/>
                <path class="cls-34" d="m223.55,293.39l10.25.25-.25,13.75-10.25-.75q.12-6.62.25-13.25Z"/>
                <path class="cls-34" d="m227.55,272.39l9.25.25-.25,9.25q-4.62-.12-9.25-.25l.25-9.25Z"/>
                <path class="cls-34" d="m208.55,272.39l9.25.25-.25,9.25q-4.62-.12-9.25-.25l.25-9.25Z"/>
                <path class="cls-34" d="m267.54,272.39l8.75.25-.75,9.75q-4.12-.37-8.25-.75l.25-9.25Z"/>
                <path class="cls-34" d="m248.04,272.39l8.25.25.25,9.25c-10.07.14-10.68,1.66-8.5-9.5Z"/>
              </g>
            </g>
          </g>
          <g>
            <path class="cls-12" d="m274.79,243.4l14.5,21c-.07.19.04.65,0,1-.24.02,1.65.96-4,1l-.25-1c-25.99-1.05-62.51,1.4-86.74,0-1.57-.09-3.17.06-4.75,0-1.43-.85,8.14-14.69,8.75-16.5.44-1.31.85-3.63,1-5,9.79-.92,19.68-.49,29.5-.5,8.32-.01,16.71-.5,25-.5,5.59,0,11.36,1.04,17,.5Z"/>
            <path class="cls-9" d="m285.29,266.39c-14.7.1-78.64.1-86.49-.5-.38-.03-.55-.08-.5-.5,24.23,1.4,60.75-1.05,86.74,0l.25,1Z"/>
          </g>
        </g>
        <g>
          <path class="cls-20" d="m343.78,279.39c4.43,2.52,8.98,4.86,14,6-1.31,1.91-9.76-.96-18.75-1.5-9.91-.6-21.6,1.03-31.75,0,.25-.51.65-1.07,1-1.5.07-.08,1.4-1.41,1.5-1.5.53-.45,11.02-6.58,12-7,1.01-.43,2.4-1.38,3-1.5-1.64,4.15,5.01.72,13.25,4.5,2.82,1.29,1.73,4.43,5.75,2.5Z"/>
          <path class="cls-34" d="m338.78,292.39v15.25c-.36.51-10.35.21-12,.25v-15.25c.35-.49,11.23-.45,12-.25Z"/>
          <path class="cls-41" d="m356.28,294.39c3.55-4.15,7.72.48,7-8,.16.02.33-.01.5,0q.25,10.62.5,21.25c-11.2,1.37-7.41.34-8-13.25Z"/>
          <path class="cls-26" d="m338.78,275.39c2.08,1.24,4.72,3.84,5,4-4.02,1.93-2.93-1.21-5.75-2.5-8.24-3.78-14.89-.35-13.25-4.5.28-.06,4.75-.51,5-.5,5.34.12,5.17,1.22,9,3.5Z"/>
          <g>
            <path class="cls-16" d="m357.78,285.39c2.28.52,3.06.72,5.5,1,.72,8.48-3.44,3.84-7,8,.51-1.61-5.52-1.34-6-.25-.54,1.21.65,12.61-.25,13.75h-9.5q-.12-7.37-.25-14.75c-.67-.96-1.17-.66-1.5-.75-.76-.2-11.65-.24-12,.25v15.25c-6.48.14-13.02.1-19.5-.25v-23.75c10.15,1.03,21.83-.6,31.75,0,8.98.54,17.44,3.41,18.75,1.5Z"/>
            <path class="cls-34" d="m313.54,293.39c.21-.15,5.01-.08,5.25.25.24.34.09,8.01-.25,8.25-.21.15-5,.37-5.25-.25.21-1.31-.39-7.79.25-8.25Z"/>
          </g>
        </g>
        <g>
          <path class="cls-10" d="m292.29,90.91c4.57.07,9.17.09,13.75,0,1.31,1.05.62,4.82.75,8.5.8,23.26-.44,46.71-.5,69.99-.05,19.33-.03,38.66,0,57.99.01,7.51-.49,52.66.5,55.24.28.73,1.33-1.46,1.5-.25-.35.43-.75.99-1,1.5v23.75c6.48.35,13.02.39,19.5.25,1.65-.04,11.64.26,12-.25v-15.25c.33.09.83-.21,1.5.75q.12,7.37.25,14.75h9.5c.9-1.14-.29-12.54.25-13.75.48-1.09,6.51-1.36,6,.25.59,13.59-3.2,14.61,8,13.25q-.25-10.62-.5-21.25c1.81.14,3.7.03,5.5-.25.3,3.29-1.15,10.76,1,11.25-.11,4.83.08,9.67,0,14.5-1.35.06-6.94-.52-7.5.75,1.21,13.7-7.39,24.09-16.5,33.25-15.66.04-31.33-.02-46.99,0,.72-2.93,3.67-8.8,4-11.25.44-3.2.62-22.35-1.75-23.25-5.58-.08-11.17.11-16.75,0q.25-22.5.5-44.99c5.65-.04,3.76-.98,4-1,.97-.09,2.44.43,3.25,1l.75-.75q-.25-72.49-.5-144.98c2.26-.74,8.46.26,9-.5,3.43-4.84-9.09-2.93-11.25-3.25l-1.25,1.25-1,141.98c.02,2.33,1.84,2.06,1,4.25l-14.5-21q.25-76.12.5-152.23c5.65-.39,11.34-.33,17-.25Z"/>
          <path class="cls-24" d="m306.79,84.42c.09,1.74-.07,3.51,0,5.25.79,1.19,1.93.62,3,.75,1.82,1.82.7,5.68,1,8.5-.2,0-1.25.84-4,.5-.13-3.68.57-7.45-.75-8.5-4.58.09-9.17.07-13.75,0-.09-2.49.12-5.01,0-7.5,3.08.35,4.27-.5,4.5-.5,1.85-.02,10.8.5,10,1.5Z"/>
          <g>
            <path class="cls-6" d="m277.79,74.92c-1.56,9.9,5.29,9.94,4,.5,3.22.22,6.52-.16,9.75,0,.02,2.63.62,5.42.75,8,.12,2.49-.09,5.01,0,7.5-5.65-.09-11.35-.14-17,.25q-.25,76.12-.5,152.23c-5.64.54-11.41-.5-17-.5V85.42c.77-2.64,1.48-2.36,1.5-2.5l8.5-.25c.25-2.11-.43-16.26.25-16.75.18-.13,3.78-.32,4.25.75.44,1-.55,7.68.25,8.25.28.2,4.12-.12,5.25,0Z"/>
            <path class="cls-17" d="m281.79,75.42c1.29,9.44-5.56,9.4-4-.5,1.32.14,2.87.42,4,.5Z"/>
          </g>
          <path class="cls-43" d="m289.29,265.39c.04-.35-.07-.81,0-1,.84-2.19-.98-1.92-1-4.25l1-141.98,1.25-1.25c2.16.32,14.68-1.59,11.25,3.25-.54.76-6.74-.24-9,.5q.25,72.49.5,144.98l-.75.75c-.81-.57-2.28-1.09-3.25-1Z"/>
          <g>
            <path class="cls-43" d="m257.79,242.9c-8.29,0-16.67.49-25,.5v-1c.04-27.33-.06-54.66,0-81.99.05-22.91-.04-45.83,0-68.74.94-1.33,3.5-.57,6-.75.33-.02.67.02,1,0-.53,2.04-5.34.32-6,1.25-.68.96.52,20.44,0,23.5,2.3-.68,4.25-.1,6.5.25-13.14.59-6.41,5.86,5,4.75-.05,40.6-1.05,81.36-.25,121.74,1.74.06,3.51-.09,5.25,0,1.01.05,6.69.18,7-.25V85.42h.5v157.48Z"/>
            <path class="cls-43" d="m257.29,85.42v156.73c-.31.43-5.99.3-7,.25-1.13-12.89.92-58.13,0-64.24-.07-.48-1.11,0-1.5-.5-.05-.15,1.4-.44,1.5-1,.5-2.83-1.35-47.45-.5-57.49-2.23-3.37-5.94-2.7-9.5-3.25-2.25-.35-4.2-.93-6.5-.25.52-3.05-.68-22.54,0-23.5.66-.93,5.47.79,6-1.25,2.32-.12,4.67.09,7,0,2.24-.09,4.5.06,6.75,0,.13-1.87.47-3.66.75-5.5h3Z"/>
            <path class="cls-43" d="m240.3,115.91c3.56.55,7.27-.12,9.5,3.25-.85,10.05,1,54.66.5,57.49-.1.56-1.55.85-1.5,1,.39.5,1.43.02,1.5.5.92,6.11-1.13,51.35,0,64.24-1.74-.09-3.5.06-5.25,0-.8-40.38.2-81.14.25-121.74-11.41,1.11-18.14-4.16-5-4.75Z"/>
          </g>
          <g>
            <path class="cls-33" d="m329.78,98.91c-1.18-.19-.94.49-1,.5-10.79,1.73-3.63-6.82-6.75-8.5-4.53-2.44-2.67,4.49-4,8.5-.91.65-6.04-.5-7.25-.5-.3-2.82.82-6.68-1-8.5,3.32.41,18.94-.57,19.75,0,.51,2.8.18,5.68.25,8.5Z"/>
            <path class="cls-8" d="m321.79,159.41c-1.49.05-3.01.04-4.5,0-1.71.49-.78-3.04-1-7,.96.04,5.14-.25,5.5.25.25.35-.18,5.25,0,6.75Z"/>
            <path class="cls-43" d="m317.79,167.91c.85.14,3.6-.32,4,.25.16.22.16,5.28,0,5.5-.37.52-4.52.18-5.5.25.22-3.85-.87-6.63,1.5-6Z"/>
            <path class="cls-14" d="m316.29,152.41c.22,3.96-.71,7.49,1,7-1.54-.04-3.52-.13-5,.5-.01-.03-.29.2-.5-.5l.5-7c.82-.16,2.89-.05,4,0Z"/>
            <g>
              <path class="cls-43" d="m322.29,233.4c-5.89.18-7.22,1.22-6.5-5.5.29,0,2.1-.89,5.75-.5,1.41.63.48,4.72.75,6Z"/>
              <path class="cls-10" d="m313.29,227.4c1.44,2.23.57,8.35-2.75,6-.58-.41-.05-1.88-.25-2.5-.3-4.31.62-3.21,3-3.5Z"/>
            </g>
            <g>
              <path class="cls-14" d="m329.78,98.91c.52,19.71.54,39.77.5,59.49-.01,6.83.05,13.67,0,20.5-.03,3.41-.45,7.02-.5,10.5-.19,12.52-.67,24.96-.5,37.5.01,1.08-.24,2.05.5,2-1.58,2.74-2.86,5.9-3.5,9-2.94-2.23-2.96.47-4-4.5-.27-1.28.66-5.37-.75-6-3.65-.39-5.46.49-5.75.5-.91.02-1.22-.65-2.5-.5-2.38.29-3.3-.81-3,3.5-.91-2.82-.14-4.03-4-3.5-.03-19.33-.05-38.66,0-57.99,6.09-.94,1.96,6.07,4.5,4.5.67.02,1.34-.03,2,0,1.13.05,2.37.08,3.5,0,.98-.07,5.13.27,5.5-.25.16-.22.16-5.28,0-5.5-.4-.57-3.15-.11-4-.25-2.28-.37-3.58.08-3.75,0-.72-.32.64-2.16-.5-3-1.21-.88-7.4,1.45-1.25-1.75.17-1.33.64-1.83,0-3.25,1.48-.63,3.46-.54,5-.5,1.49.04,3.01.05,4.5,0,.19,0,1.18,2.71,2-1.25.43-2.08-4.14-3.39,5-3.5v-55.24c.06,0-.18-.69,1-.5Z"/>
              <g>
                <path class="cls-43" d="m316.04,183.4c.74-.52,8.58-.97,6.25,4.25-.43.96-5.12,1.03-5.75.75-1.17-.52-.88-4.73-.5-5Z"/>
                <g>
                  <path class="cls-8" d="m316.54,197.9c8.51-3.79,7.31,10.57-.25,5.75-.24-.15-1.02-5.18.25-5.75Z"/>
                  <path class="cls-43" d="m311.04,197.9c5.03-2.44,2.57,10.42-.75,5.75-.17-.24-.33-5.23.75-5.75Z"/>
                </g>
                <g>
                  <path class="cls-8" d="m316.54,212.4c6.97-3.09,5.55,6.61,5,7-.23.17-5.52.07-5.75-.25-.2-.28-.32-6.28.75-6.75Z"/>
                  <path class="cls-43" d="m311.04,212.4c3.09-2.32,2.49,6.63,2,7-3.09,2.32-2.49-6.63-2-7Z"/>
                </g>
                <path class="cls-10" d="m310.54,183.4c2.96-2.13,4.59,4.04,2.5,5-3.8,1.76-2.96-4.67-2.5-5Z"/>
              </g>
            </g>
            <g>
              <path class="cls-14" d="m328.78,99.41v55.24c-9.14.11-4.57,1.42-5,3.5-.82,3.96-1.81,1.24-2,1.25-.18-1.49.25-6.4,0-6.75-.36-.5-4.54-.21-5.5-.25-1.11-.05-3.18-.16-4,0-2.63.51-2.76,3.41-2,6.25.22.84,1.48.67,1.5.75.21.7.49.47.5.5.64,1.42.17,1.92,0,3.25-6.15,3.2.04.86,1.25,1.75,1.14.84-.22,2.68.5,3,.17.08,1.47-.37,3.75,0-2.37-.63-1.28,2.15-1.5,6-1.13.08-2.37.05-3.5,0,1.17-8.99-4.32-7.95-2,0-2.54,1.57,1.59-5.44-4.5-4.5.06-23.28,1.3-46.73.5-69.99,2.75.34,3.8-.5,4-.5,1.21,0,6.34,1.15,7.25.5,1.33-4-.53-10.93,4-8.5,3.12,1.68-4.04,10.23,6.75,8.5Z"/>
              <g>
                <path class="cls-10" d="m312.79,173.9c-.66-.03-1.33.02-2,0-2.32-7.95,3.17-8.99,2,0Z"/>
                <path class="cls-43" d="m317.04,137.41c6.06-2.7,5.46,6.35,4,7-6.06,2.7-5.46-6.35-4-7Z"/>
                <path class="cls-43" d="m316.04,123.41c.23-.17,5.52-.07,5.75.25.17.24.32,5.27-.75,5.75-6.11,2.72-6.02-5.28-5-6Z"/>
                <g>
                  <path class="cls-8" d="m316.29,115.41l-.5-7.5c.97,0,5.67-.22,6,.25.2.29.2,6.71,0,7-.36.5-4.54.21-5.5.25Z"/>
                  <path class="cls-14" d="m315.79,107.91l.5,7.5c-1.18.05-3.9.16-4.5,0l.5-7.5c.75-.15,2.39,0,3.5,0Z"/>
                  <path class="cls-33" d="m312.29,107.91l-.5,7.5c-2.34-.62-1.71-6.9-1.5-7.25.3-.51,1.45-.14,2-.25Z"/>
                </g>
                <path class="cls-42" d="m310.54,123.41c2.81-2.11,2.93,5.41,1.5,6-2.51,1.03-1.9-5.7-1.5-6Z"/>
                <path class="cls-43" d="m312.29,152.41l-.5,7c-.02-.08-1.28.09-1.5-.75-.76-2.84-.63-5.74,2-6.25Z"/>
                <path class="cls-42" d="m311.04,137.41c2.63-.63,1.19,10.71-.75,6.25-.2-.47-.27-6.01.75-6.25Z"/>
              </g>
            </g>
            <path class="cls-43" d="m321.79,273.89c-.97.42-11.47,6.55-12,7,.2-1.2-.38-6.54.25-7,.27-.19,1.53.27,6.5-1.5,1.94-.69,3.29-2.53,3.5-2.5.98.14.54,3.36,1.75,4Z"/>
            <g>
              <path class="cls-24" d="m310.29,230.9c.2.62-.33,2.09.25,2.5,3.32,2.35,4.19-3.77,2.75-6,1.28-.15,1.59.52,2.5.5-.72,6.72.61,5.68,6.5,5.5,1.03,4.97,1.06,2.27,4,4.5-1.78,8.59-1.24,14.89,2,23-3.37,2.31-.22,7.94,1.5,11-.25,0-4.72.44-5,.5-.6.12-1.99,1.07-3,1.5-1.21-.63-.77-3.86-1.75-4-.21-.03-1.56,1.81-3.5,2.5-4.97,1.77-6.23,1.3-6.5,1.5-.63.46-.05,5.8-.25,7-.1.09-1.43,1.42-1.5,1.5-.17-1.21-1.22.98-1.5.25-.99-2.58-.49-47.73-.5-55.24,3.86-.53,3.09.68,4,3.5Z"/>
              <path class="cls-43" d="m310.54,242.4c.43-.19,9.11-.27,9.5,0,.33.24.4,5.04.25,5.25-.3.42-9.83.55-10.25.25-.36-.25-.7-4.97.5-5.5Z"/>
              <path class="cls-43" d="m316.54,256.4c11.34.15-1.41,6.43-6,7.5-.84-6.77-1.11-7.59,6-7.5Z"/>
            </g>
          </g>
        </g>
        <g>
          <path class="cls-11" d="m68.32,211.9l.25,16.5h-33.75c.03-1.5-.02-3,0-4.5.06-3.83-.03-7.67,0-11.5q16.75-.25,33.5-.5Z"/>
          <path class="cls-11" d="m87.31,184.9c-.03,1.34.25,8.64-.25,9-5.75-.03-11.5.05-17.25,0-11.64-.09-23.33-1.03-35-.5-.02-3,.03-6,0-9q26.25.25,52.49.5Z"/>
          <path class="cls-11" d="m69.32,199.4c0,2.66-.06,5.34,0,8h-34.5c.01-2.67,0-5.33,0-8h34.5Z"/>
          <path class="cls-33" d="m37.32,174.4c.19,1.09-.37,5.56.25,6,.38.27,7.82-.04,9.25,0,4.32.14,8.67-.04,13,0,3.5.04,7-.03,10.5,0h17c.06,1.48.04,3.02,0,4.5q-26.25-.25-52.49-.5c-.04-3.49.11-7.01,0-10.5,1.63-.29,2.21.5,2.5.5Z"/>
          <path class="cls-33" d="m69.82,193.9c-.8.04-.5,2.78-.5,5.5h-34.5c0-2,.01-4,0-6,11.66-.53,23.35.41,35,.5Z"/>
          <path class="cls-33" d="m69.32,207.4c.04,1.5-.03,3,0,4.5h-1q-16.75.25-33.5.5c.01-1.67,0-3.33,0-5h34.5Z"/>
          <path class="cls-11" d="m69.32,211.9c.31,15.85.59,31.64.5,47.49-.52,0-.86.7-1.25,1h-31.5v-9.5c4.1-.43,30.9.87,31.75-.75.12-.22.1-4.77,0-5-.86-1.93-31.85.08-33.75-.75-1.53-.67.05-4.42-1.75-2v-1l1.5-1.25c.08-1.57-.11-3.18,0-4.75,4.48-.56,31.77.77,33.25,0,.94-.49,1.03-6.12.5-6.5-1.38-.98-29.51.75-33.75,0,0-.17,0-.33,0-.5h33.75l-.25-16.5h1Z"/>
          <path class="cls-33" d="m34.82,235.4c.15-2.14-.05-4.35,0-6.5,4.24.75,32.37-.98,33.75,0,.53.37.44,6.01-.5,6.5-1.47.77-28.77-.56-33.25,0Z"/>
          <path class="cls-11" d="m67.82,276.39v4.5q.25,15.25.5,30.5c-.82,3.62-1.92,2.84-2,3,1.38-3.99.3-9.49.25-14h-31.25v-.5c3.78-.71,30.58,1.03,31.5-.25.21-.3.05-7.04-.25-7.25-1.2-.85-25.61.11-29.5,0-.2,0-.8-.99-1-1-.38-.01.01.99-.75,1-.16,0,.05-1.55-2.5-.25v22.25c-5.42.05-3.28-.5-3.5-.5v-24c4.68,2.88,3.77.55,4,.5,1.33-.29,2.11,1.01,2.5.25q.37-4.37.75-8.75c3.97-.58,28.7.76,30,0,1.38-.81-.86-5.84,1.25-5.5Z"/>
          <path class="cls-33" d="m69.82,259.39c.86-.02,1.66.01,2.5,0l-7.5,15c-.84-2.83.89-7.27-.75-8q-13.62.37-27.25.75l.75,8.25c9.08.05,18.17-.07,27.25,0,2.51.02,2.85.5,3,.5v.5c-2.11-.34.13,4.69-1.25,5.5-1.29.76-26.03-.58-30,0q-.37,4.37-.75,8.75c-.39.76-1.17-.54-2.5-.25v-47.99c1.8-2.42.22,1.33,1.75,2,1.89.83,32.89-1.18,33.75.75.1.23.12,4.78,0,5-.85,1.62-27.64.32-31.75.75v9.5h31.5c.39-.3.73-.99,1.25-1Z"/>
          <path class="cls-11" d="m87.31,180.4h-17l.5-6.5c5.41.07,10.83-.05,16.25,0,.51.36.2,5.44.25,6.5Z"/>
          <g>
            <path class="cls-7" d="m115.31,185.9c-1.36,2.49,0,5.22,0,5.5-.07,1.83.04,3.67,0,5.5-.04,2.16.02,4.33,0,6.5-.02,2,.02,4,0,6-.03,3.33.52,6.77.5,10-.01,2.03,0,3.98,0,6,0,3.33,0,6.67,0,10,0,2.5,0,5,0,7.5,0,2.72-.5,5.67-.5,8.5,0,2.17,0,4.33,0,6.5v1c-14.31.12-28.68.26-42.99.5-.84.01-1.64-.02-2.5,0,.09-15.85-.19-31.65-.5-47.49-.03-1.5.04-3,0-4.5-.06-2.66,0-5.34,0-8,0-2.72-.3-5.46.5-5.5,5.75.05,11.5-.03,17.25,0,.5-.36.22-7.66.25-9,.04-1.48.06-3.02,0-4.5-.05-1.06.26-6.14-.25-6.5-5.41-.05-10.83.07-16.25,0-3.85-.05-7.73.5-11.5.5-4.16,0-8.34,0-12.5,0-3.21,0-6.26-.04-9.5,0-.29,0-.86-.79-2.5-.5-.09-2.94-.38-6.02-.5-9,10.57-2.12,20.98-5.78,31.5-8,2.58-.54,3.32-.96,3.5-1,1.34-.27,2.85-.83,4-1,10.09-1.48,20.93,1.55,30.25,5.5,17.17,7.27,9.21,6.44,11.75,25.5Z"/>
            <path class="cls-34" d="m75.57,206.9l10.25.25-.25,12.75q-5.12-.12-10.25-.25.12-6.37.25-12.75Z"/>
            <path class="cls-34" d="m76.56,232.4q4.37.37,8.75.75c-.31,11.2,2.69,11.59-9,10.5l.25-11.25Z"/>
          </g>
          <path class="cls-11" d="m59.32,174.4l.5,6c-4.33-.04-8.68.14-13,0v-6c4.16,0,8.34,0,12.5,0Z"/>
          <path class="cls-28" d="m70.82,173.9l-.5,6.5c-3.5-.03-7,.04-10.5,0l-.5-6c3.76,0,7.65-.55,11.5-.5Z"/>
          <path class="cls-11" d="m46.82,174.4v6c-1.43-.04-8.87.27-9.25,0-.62-.44-.06-4.91-.25-6,3.24-.04,6.29,0,9.5,0Z"/>
          <path class="cls-11" d="m66.32,314.39c-.32.7-.49.47-.5.5-10.14.58-20.39-.55-30.5-.5v-14h31.25c.05,4.51,1.13,10.01-.25,14Z"/>
          <path class="cls-43" d="m35.32,299.89v-7.5c.76-.01.37-1.01.75-1,.2,0,.8.99,1,1,3.89.11,28.29-.85,29.5,0,.3.21.46,6.95.25,7.25-.91,1.28-27.72-.46-31.5.25Z"/>
          <path class="cls-11" d="m64.82,274.39c.07.25-.04.67,0,1-9.08-.07-18.17.05-27.25,0l-.75-8.25q13.62-.37,27.25-.75c1.64.73-.09,5.17.75,8Z"/>
        </g>
        <g>
          <path class="cls-10" d="m198.3,275.39c.4,12.02.69,23.97.5,36-8.04,0-16.17.51-24.25.5-.41,0-.2-1-.25-1v-4l23.5-.25q-.25-15.62-.5-31.25h1Z"/>
          <path class="cls-10" d="m197.3,275.39q.25,15.62.5,31.25l-23.5.25v-31.5c3.44.02,3.8-.5,4-.5,6.28.05,12.68,1,19,.5Z"/>
        </g>
        <path class="cls-24" d="m178.3,266.39v8c-2.27-1.97-3.7-4.65-5.5-7-.44-1.65,2.3-.82,5.5-1Z"/>
        <g>
          <path class="cls-11" d="m155.81,243.4c-.21,4.98.16,10.01,0,15-13.36-.22-27.09.38-40.5.5v-1h23.25c.51-.36.2-4.98.25-6,14.49-.61,17.3,2.7,16-8.5h1Z"/>
          <path class="cls-34" d="m154.81,243.4c1.3,11.2-1.51,7.88-16,8.5.12-2.49-.09-5.01,0-7.5.05-.01-.17-.94.25-1h15.75Z"/>
        </g>
        <path class="cls-34" d="m200.3,248.9c-3.31.55-5.15-.14-8,0,.23-1.89-.32-6.53,0-7.25.31-.7,10.62-4.56,8,7.25Z"/>
        <path class="cls-34" d="m178.3,265.89c.03-3-.04-6,0-9,7.54-2.59,8.66,5,7,8.75l-7,.25Z"/>
        <path class="cls-34" d="m185.3,249.4c-2.17,0-4.72,1.02-7,.5.04-1.3-.26-8.14.25-8.5.28-.2,6.54-.05,6.75.25.27.38-.19,6.17,0,7.75Z"/>
        <g>
          <path class="cls-5" d="m203.3,188.9c-1,14.54,1.33,42.77,0,54.99-.15,1.37-.56,3.69-1,5-.65.07-1.37-.1-2,0,2.62-11.81-7.69-7.95-8-7.25-.32.72.23,5.36,0,7.25-.05,0,.16.98-.25,1-2.3.1-4.61-.51-6.75-.5-.19-1.58.27-7.37,0-7.75-.21-.3-6.47-.45-6.75-.25-.51.36-.21,7.2-.25,8.5-.07,2.31.03,4.68,0,7-.04,3,.03,6,0,9v.5c-3.2.18-5.94-.65-5.5,1-2.06-2.7-5.05-5.04-5.75-8.5-3.75.08-7.51-.44-11.25-.5.16-4.99-.21-10.02,0-15,.11-2.64.4-5.32.5-8,.58-14.84,1.44-29.63,1-44.49.72-.17,1.29-.29,2-.5,8.87-2.57,26.37-14.09,23.75-15.5l-6.25-.5c2.09.36,6.28-.4,7.75,0,1.14.31,16.94,12.79,18.75,14.5Z"/>
          <g>
            <path class="cls-34" d="m179.05,225.4c.26-.18,5.77-.32,6.25.75,1.64,3.68.19,10.97-6.5,8,.22-1.36-.4-8.29.25-8.75Z"/>
            <path class="cls-34" d="m179.55,209.9c7.86-3.49,6.2,7.96,5,8.5-7.61,3.39-6.33-7.91-5-8.5Z"/>
            <path class="cls-34" d="m193.55,210.4c.26-.18,6.03-.06,6.25.25.22.32.07,7.52-.25,7.75-.26.18-6.03.06-6.25-.25-.22-.32-.07-7.52.25-7.75Z"/>
            <path class="cls-34" d="m193.55,225.9c.26-.18,6.03-.06,6.25.25.22.32.07,7.52-.25,7.75-.26.18-6.03.06-6.25-.25-.22-.32-.07-7.52.25-7.75Z"/>
            <path class="cls-11" d="m193.55,197.4c.78-.55,9.6-1.14,6.75,5.25-.47,1.07-6.47.95-6.75.75-.41-.29-.41-5.71,0-6Z"/>
            <path class="cls-11" d="m179.55,197.4c.21-.15,5.01-.08,5.25.25.17.23.07,5.52-.25,5.75-.21.15-5.01.08-5.25-.25-.17-.23-.07-5.52.25-5.75Z"/>
            <path class="cls-10" d="m163.55,243.9c4.06-2.9,5.43,4.98,4,6-4.31,3.06-5.33-5.05-4-6Z"/>
            <path class="cls-10" d="m163.55,227.9c5.21-2.31,3.91,5.71,3.5,6-4.22,2.99-5.7-5.03-3.5-6Z"/>
            <path class="cls-42" d="m163.05,196.9c3.9-2.8,4.96,5.63,3,6.5-4.7,2.09-3.39-6.22-3-6.5Z"/>
            <path class="cls-34" d="m163.05,211.4c3.94-2.8,4.68,4.86,3.5,6-.14.13-3.41.65-3.75-.25-.19-.52-.05-5.54.25-5.75Z"/>
            <path class="cls-43" d="m180.05,186.4c.19-.14,4.52-.09,4.75.25.13.2-.55,4.61-.75,4.75-3.47,2.47-5.72-3.78-4-5Z"/>
          </g>
        </g>
        <g>
          <path class="cls-27" d="m165.3,166.91c.04.99.62,1.14,0,2.25-1.25,2.22-13.4,14.73-15.25,22.25h-34.75c0-.27-1.36-3.01,0-5.5l11.25-18.5c10.52.97,30.82-1.58,38.75-.5Z"/>
          <path class="cls-13" d="m137.06,167.91l.75.25c-20.85,23.8-22.8,22.44-.75-.25Z"/>
          <g>
            <path class="cls-18" d="m138.56,177.4c5.96-.76,7.37,5.74,2,7-7.23,1.69-7.02-6.36-2-7Z"/>
            <path class="cls-27" d="m138.06,178.4c4.48-1.23,6.49,3.95,2,5-5.72,1.34-4.61-4.28-2-5Z"/>
          </g>
        </g>
        <g>
          <path class="cls-13" d="m172.8,267.39c1.8,2.35,3.23,5.03,5.5,7v.5c-.2,0-.56.52-4,.5-.33,0-.67,0-1,0-18.25-.14-36.49-.5-54.74-.5-16.85,0-33.9,1.13-50.74,1-.15,0-.49-.48-3-.5-.04-.33.07-.75,0-1l7.5-15c14.31-.24,28.68-.38,42.99-.5,13.41-.12,27.13-.72,40.5-.5,3.74.06,7.5.58,11.25.5.7,3.46,3.69,5.8,5.75,8.5Z"/>
          <path class="cls-28" d="m149.81,311.39c-5.99-.02-12.05-.49-18-.5.04-8.17-2.76-29.84,11.75-26.5,9.42,2.17,5.44,20.07,6.25,27Z"/>
          <g>
            <path class="cls-21" d="m173.3,275.39c-.22,1.82.31,7.18,0,7.75-.11.21-4.26,1.72-4.5,1.75-4.91.67-13.95-4.38-10.5,5.5l-1.5-.25c1.85-11.56-3.95-3.01-14.25-7.75-10.52-.3-20.99.39-31.5.5-.19,0-.81,1-1,1-6.23.06-12.21-.92-18.5-1-.37,0,.71,1.16-7,1-.13,0-2.37-1-2.5-1-5.22-.18-12.15,1.1-14.25-2v-5c16.85.13,33.89-1,50.74-1,18.26,0,36.49.36,54.74.5Z"/>
            <path class="cls-31" d="m168.8,284.89c.71,7.84-.38,5.06-10.5,5.5-3.45-9.88,5.58-4.83,10.5-5.5Z"/>
            <g>
              <path class="cls-40" d="m174.3,275.39v35.5c-8.12,0-16.33.52-24.5.5-.81-6.92,3.17-24.82-6.25-27-14.51-3.35-11.71,18.33-11.75,26.5-9.62-.02-19.34.49-29,.5v-12.25c-.67-.96-1.17-.66-1.5-.75-1.54-.41-6.67.29-9.25,0-1.24.86-.67,3.44-.75,6-.08,2.33.06,4.67,0,7-7.67-.03-15.33.02-23,0q-.25-15.25-.5-30.5c2.1,3.1,9.03,1.82,14.25,2,.13,0,2.37,1,2.5,1,7.71.16,6.63-1,7-1,6.29.08,12.27,1.06,18.5,1,.19,0,.81-1,1-1,10.51-.11,20.98-.8,31.5-.5,10.3,4.74,16.1-3.81,14.25,7.75l1.5.25c10.12-.44,11.21,2.35,10.5-5.5.24-.03,4.39-1.54,4.5-1.75.31-.57-.22-5.93,0-7.75.33,0,.67,0,1,0Z"/>
              <g>
                <path class="cls-31" d="m73.57,283.89h9l.25,7.25c-7.61-1.12-12.39,2.87-9.25-7.25Z"/>
                <path class="cls-31" d="m92.06,283.89c4.28-.09,12.98-1.5,9.75,5.75-.33.74-14.96,3.83-9.75-5.75Z"/>
                <path class="cls-31" d="m111.06,299.39c.68-.3,13.5-2.03,10.25,5.25-.48,1.08-9.78.96-10.25.75-1.14-.51-1.14-5.49,0-6Z"/>
                <path class="cls-31" d="m111.06,283.89c.39-.27,9.11-.27,9.5,0,.29.21.44,5.32.25,5.75-.45,1.02-9.35,1.03-9.75.75-.41-.29-.41-6.21,0-6.5Z"/>
                <path class="cls-31" d="m158.06,299.39c4.12.34,14.51-2.16,11.25,5.25-.23.51-10.92.71-11.25.25-.29-.41-.77-5.2,0-5.5Z"/>
                <path class="cls-31" d="m73.07,299.39c.41-.29,9.59-.29,10,0,.32.23.42,5.51.25,5.75-.28.4-9.3.45-9.75.25-1.22-.54-.84-5.76-.5-6Z"/>
              </g>
            </g>
            <g>
              <path class="cls-30" d="m102.81,311.39c-3.85,0-7.65.02-11.5,0,.06-2.33-.08-4.67,0-7,8.2-.25,11.09,1.79,10-6,.33.09.83-.21,1.5.75v12.25Z"/>
              <path class="cls-22" d="m101.31,298.39c1.09,7.79-1.79,5.75-10,6,.08-2.56-.49-5.13.75-6,2.58.29,7.71-.41,9.25,0Z"/>
            </g>
          </g>
        </g>
      </g>
    </g>
    <g>
      <rect class="cls-29" x="219.56" y="29.03" width="4.35" height="289.96" transform="translate(-11.05 15.08) rotate(-3.8)"/>
      <rect class="cls-15" x="81.75" y="4.34" width="133.66" height="84.65" transform="translate(-2.77 9.95) rotate(-3.8)"/>
      <g>
        <g>
          <path class="cls-23" d="m124.62,36.65h0c-.23-.39-.83-.82-1.36-.74-.94.06-2.13.13-3.32.21.96-3.74,2.1-8.18,2.2-8.63.23-1.2.17-2.56-1.33-2.92-.88-.26-1.91.22-2.32,1.01-.42.77-1.63,3.03-3.04,5.65-1.4,2.6-3.25,6.06-4.47,8.32-.31.61-.29,1.52.1,2.13h0c.23.39.83.82,1.36.74.94-.06,2.13-.13,3.32-.21-.96,3.74-2.1,8.18-2.2,8.63-.23,1.2-.17,2.56,1.33,2.92.88.26,1.91-.22,2.32-1.01.42-.77,1.63-3.03,3.04-5.65,1.4-2.6,3.25-6.06,4.47-8.32.31-.61.29-1.52-.1-2.13Z"/>
          <path class="cls-23" d="m100.85,44.59c2.6-4.27,7.62-6.27,12.73-6.61,4.7-.31,6.21-.73,9.93,1.74-3.89-3.04-5.91-2.96-11.13-2.61s-10.14,2.34-12.73,6.61c-2.61,4.28-3.97,10.73-.77,17.73.11.25.23.49.34.73-1.85-6.65-.7-13.75,1.64-17.59Z"/>
          <path class="cls-23" d="m136.22,52.47c.21,1.44.16,3.36.15,4.81-.01,3.69-1.03,7.32-3.05,10.05-2.89,3.91-7.65,6-12.93,6.33-3.92.25-5.79.07-8.09-.39.48.36,2.34,1.22,4.61,1.51.87.11,2.42.28,4.32.16,8.96-.56,15.94-7.63,15.97-16.6,0-2.19-.34-4.14-.98-5.87Z"/>
        </g>
        <g>
          <g>
            <path class="cls-37" d="m127.89,51.31c-.23-3.4,1.51-5.69,5.23-5.94l6.14-.41-.04-.54c-.16-2.37-1.45-2.48-4.07-2.31-2.37.16-3.46.43-4.24.57-.66.12-1.45-.3-1.52-1.28l-.08-1.17c-.1-1.54,3.11-2.31,6.62-2.54,4.75-.32,7.89.51,8.24,5.73l.72,10.8c.05.69-.34,1.22-1.08,1.27l-2.08.14c-.65.04-1.15-.4-1.36-1.11l-.5-1.78c-.71,1.9-2.21,3.61-5.24,3.81l-.54.04c-3.36.22-5.93-1.38-6.19-5.29Zm7.58,1.27l.51-.03c1.97-.13,3.71-1.21,3.57-3.41l-.04-.67-4.82.32c-1.48.1-1.92.87-1.85,1.99s.64,1.94,2.64,1.8Z"/>
            <path class="cls-37" d="m153.45,62.35l-.12-1.77c-.01-.22.12-.41.37-.39,1.97.16,2.97-.36,2.92-1.12-.04-.61-1.37-1.2-2.98-.36-.25.13-.43.03-.45-.22l-.12-1.86c-.01-.18.05-.33.15-.45l1.07-1.14c-4.81-.52-7.93-3.56-8.28-8.8-.33-4.9,1.9-9.34,8.17-9.76l.76-.05c4.37-.29,7.46,1.61,7.69,5.17.11,1.61-.45,2.77-2.02,2.87h-.09c-1.39.1-1.93-.7-2.19-1.57-.41-1.24-1.46-2.03-3.43-1.9h-.18c-3.23.23-3.91,2.58-3.76,4.85.24,3.69,2.55,5.02,6.36,4.77,1.55-.1,2.66-.43,3.75-.87.9-.35,1.55.1,1.62,1.13l.08,1.17c.06.89-.36,1.42-1.04,1.78-1.31.7-2.85,1.06-4.38,1.22l-.8.8c1.63.02,3.35.94,3.47,2.78.21,3.23-3.01,4.41-6.21,4.1-.22-.02-.34-.16-.35-.38Z"/>
            <path class="cls-37" d="m164.24,48.9c-.23-3.4,1.51-5.69,5.23-5.94l6.14-.41-.04-.54c-.16-2.37-1.45-2.48-4.07-2.31-2.37.16-3.46.43-4.24.57-.66.12-1.45-.3-1.52-1.28l-.08-1.17c-.1-1.54,3.11-2.31,6.62-2.54,4.75-.32,7.89.51,8.24,5.73l.72,10.8c.05.69-.34,1.22-1.08,1.27l-2.08.14c-.65.04-1.15-.4-1.36-1.11l-.5-1.78c-.71,1.9-2.21,3.61-5.24,3.81l-.54.04c-3.36.22-5.93-1.38-6.19-5.29Zm7.58,1.27l.51-.03c1.97-.13,3.71-1.21,3.57-3.41l-.04-.67-4.82.32c-1.48.1-1.92.87-1.85,1.99s.64,1.94,2.64,1.8Z"/>
            <path class="cls-37" d="m185.46,46.52l-.4-6.03c-.07-1.03-.47-1.35-1.5-1.28h0c-.83.06-1.55-.59-1.6-1.4l-.09-1.3c-.06-.83.57-1.54,1.4-1.6l2.53-.17c2.76-.18,4.05.95,4.24,3.71l.46,6.94c.12,1.81,1.16,2.75,2.99,2.63l1.41-.09c.83-.06,1.53.57,1.58,1.38l.08,1.19c.06.83-.55,1.52-1.38,1.58l-3.29.22c-3.88.26-6.17-1.91-6.43-5.78Zm.17-19.63c.34-.86,1.1-1.47,2.02-1.53l1.41-.09c1.01-.07,1.56.57,1.24,1.42l-1.09,2.78c-.34.86-.94,1.48-2.06,1.55l-1.41.09c-1.01.07-1.55-.59-1.2-1.43l1.08-2.79Z"/>
          </g>
          <g>
            <path class="cls-23" d="m164.26,66.79l-.5-7.54c-.05-.73.29-1.11,1.02-1.16l3.11-.21c2.55-.17,3.41,1.39,3.54,3.35.16,2.41-.92,3.88-3.18,4.03-1.22.08-2.11-.27-2.45-.82h-.09s.15,2.25.15,2.25c.02.33-.15.53-.48.55l-.56.04c-.33.02-.53-.15-.55-.48Zm3.48-2.97c1.39-.09,2.25-.8,2.14-2.46s-1-2.18-2.42-2.09l-1.63.11c-.32.02-.44.17-.42.48l.17,2.54c.08,1.18,1.11,1.5,2.17,1.43Z"/>
            <path class="cls-23" d="m173.94,58l.27,4.02c.08,1.27.48,2.1,2.07,2s2.06-.99,1.98-2.27l-.27-4.02c-.02-.33.15-.53.48-.55l.56-.04c.33-.02.53.15.55.48l.46,6.95c.02.33-.15.53-.48.55l-.51.03c-.33.02-.53-.14-.57-.47l-.1-.88h-.17c-.31.94-.94,1.63-2.55,1.73-2.16.14-2.9-.99-3.03-2.94l-.3-4.5c-.02-.33.15-.53.48-.55l.56-.04c.33-.02.53.15.55.48Z"/>
            <path class="cls-23" d="m181.26,64.49l-.46-6.95c-.02-.33.15-.53.48-.55l.4-.03c.33-.02.52.14.56.46l.06.53h.11c.15-.84.65-1.25,1.49-1.3s1.25.3,1.58,1.09h.09c.2-.85.75-1.25,1.61-1.31,1.21-.08,1.87.64,1.98,2.31l.34,5.19c.02.33-.15.53-.48.55l-.47.03c-.33.02-.53-.15-.55-.48l-.33-4.96c-.05-.77-.35-1.17-1.03-1.13s-.95.49-.9,1.26l.33,4.96c.02.33-.14.53-.48.55l-.38.03c-.33.02-.52-.15-.54-.48l-.33-4.96c-.05-.77-.36-1.17-1.05-1.13s-.93.49-.88,1.26l.33,4.96c.02.33-.15.53-.48.55l-.47.03c-.33.02-.53-.15-.55-.48Z"/>
            <path class="cls-23" d="m190.91,65.02l-.5-7.54c-.05-.73.29-1.11,1.02-1.16l3.11-.21c2.55-.17,3.41,1.39,3.54,3.35.16,2.41-.92,3.88-3.18,4.03-1.22.08-2.11-.27-2.45-.82h-.09s.15,2.25.15,2.25c.02.33-.15.53-.48.55l-.56.04c-.33.02-.53-.15-.55-.48Zm3.48-2.97c1.39-.09,2.25-.8,2.14-2.46s-1-2.18-2.42-2.09l-1.63.11c-.32.02-.44.17-.42.48l.17,2.54c.08,1.18,1.11,1.5,2.17,1.43Z"/>
          </g>
        </g>
      </g>
    </g>
  </g>
</svg>