<svg width="191" height="22" viewBox="0 0 191 22" fill="none" xmlns="http://www.w3.org/2000/svg">
<g id="Hey Pumpers" clip-path="url(#clip0_9_49)">
<path id="Vector" d="M0 18.4336V1.74825C0 1.12587 0.339223 0.790207 0.968198 0.790207H2.28975C2.92226 0.790207 3.25795 1.12587 3.25795 1.74825V7.50349H3.61131C4.30035 5.93356 5.44876 4.71328 8.35689 4.71328C12.1908 4.71328 13.3958 6.83566 13.3958 10.3217V18.4301C13.3958 19.0559 13.0565 19.3881 12.4276 19.3881H11.106C10.4735 19.3881 10.1378 19.0524 10.1378 18.4301V11.3217C10.1378 9.12587 9.49117 7.68881 6.83392 7.68881C4.17668 7.68881 3.26502 9.12937 3.26502 11.3217V18.4301C3.26502 19.0559 2.92579 19.3881 2.29682 19.3881H0.975265C0.342756 19.3881 0.00706714 19.0524 0.00706714 18.4301L0 18.4336Z" fill="#964DFF"/>
<path id="Vector_2" d="M14.9081 12.2587C14.9081 7.60839 17.3463 4.71678 21.9576 4.71678H22.4876C27.0707 4.71678 28.7456 7.49301 28.7456 10.965C28.7456 12.4196 28.4382 13.0874 27.0707 13.0874H18.0954C18.2261 15.528 19.3569 17.0105 23.3534 17.0105H23.5442C25.4382 17.0105 26.5265 16.7063 27.0247 16.6469C27.5088 16.5734 27.8021 16.8951 27.8021 17.3881V18.2762C27.8021 19.3077 25.2756 19.7587 23.0883 19.7587H22.7809C17.2862 19.7587 14.9081 16.8392 14.9081 12.2587ZM25.894 10.7343C25.8198 8.67133 24.8516 7.49301 22.3675 7.49301H22.1025C19.7526 7.49301 18.5194 8.58391 18.1661 10.7343H25.8905H25.894Z" fill="#964DFF"/>
<path id="Vector_3" d="M33.2685 19.3636L35.1625 16.0489L29.5654 6.08042C29.1696 5.38112 29.6078 5.00349 30.2403 5.00349H31.9717C32.4876 5.00349 32.6926 5.23776 33.0141 5.81818L36.9223 12.9266L40.9011 5.81818C41.2226 5.23776 41.4452 5.00349 41.9576 5.00349H43.6608C44.2933 5.00349 44.7314 5.38112 44.3357 6.08042L36.7279 19.6259C36.4064 20.2063 36.1979 20.4406 35.6855 20.4406H33.9364C33.3039 20.4406 32.8657 20.0629 33.2615 19.3636H33.2685Z" fill="#964DFF"/>
<path id="Vector_4" d="M53.3003 18.5804V14.8461C53.3003 14.1049 52.8163 13.6259 52.0671 13.6259H48.9223C48.2014 13.6259 47.689 13.1888 47.689 12.479V11.8671C47.689 11.1399 48.2014 10.7203 48.9223 10.7203H54.0318C55.3392 10.7203 56.3216 11.7098 56.3216 12.986V18.5804C56.3216 19.2937 55.7915 19.7587 55.0742 19.7587H54.5618C53.8269 19.7587 53.3003 19.2937 53.3003 18.5804Z" fill="#964DFF"/>
<path id="Vector_5" d="M75.629 20.542V7.03846C75.629 5.67133 76.3039 5.00349 77.6855 5.00349H83.4276C88.0389 5.00349 89.4205 7.8951 89.4205 11.4406C89.4205 15.7273 87.3639 18.2867 83.265 18.2867C81.106 18.2867 79.6219 17.5874 79.0636 16.514H78.8869V20.5385C78.8869 21.1643 78.5477 21.4965 77.9187 21.4965H76.5972C75.9647 21.4965 75.629 21.1608 75.629 20.5385V20.542ZM82.371 15.3531C84.7632 15.3531 86.2332 14.2482 86.2332 11.5035C86.2332 8.75874 84.8092 7.70979 82.3851 7.70979H79.7562C79.1555 7.70979 78.8904 7.95804 78.8904 8.56643V12.7517C78.8904 14.7727 80.6678 15.3531 82.371 15.3531Z" fill="#66AA3A"/>
<path id="Vector_6" d="M94.0318 5.96503V13.0734C94.0318 15.2692 94.6784 16.7063 97.3357 16.7063C99.9929 16.7063 100.905 15.2657 100.905 13.0734V5.96503C100.905 5.33916 101.244 5.00699 101.873 5.00699H103.194C103.827 5.00699 104.163 5.34265 104.163 5.96503V18.4336C104.163 19.0594 103.823 19.3916 103.194 19.3916H101.961C101.36 19.3916 101.007 19.0734 100.979 18.4615L100.905 16.8916H100.551C99.8622 18.4615 98.7138 19.6818 95.8056 19.6818C91.9717 19.6818 90.7668 17.5594 90.7668 14.0734V5.96503C90.7668 5.33916 91.106 5.00699 91.735 5.00699H93.0565C93.689 5.00699 94.0247 5.34265 94.0247 5.96503H94.0318Z" fill="#66AA3A"/>
<path id="Vector_7" d="M104.989 18.4336V5.96504C104.989 5.33916 105.329 5.00699 105.958 5.00699H106.943C107.562 5.00699 107.912 5.32518 107.943 5.95105L107.986 6.92308H108.223C108.604 5.35315 109.572 4.71329 111.057 4.71329C112.541 4.71329 113.244 5.35315 113.746 6.92308H113.936C114.406 5.35315 115.435 4.71329 116.947 4.71329C119.166 4.71329 120.208 6.16783 120.208 9.1014V18.4301C120.208 19.0559 119.869 19.3881 119.24 19.3881H118.138C117.505 19.3881 117.17 19.0524 117.17 18.4301V9.56643C117.17 8.36014 116.742 7.67832 115.611 7.67832C114.481 7.67832 114.025 8.36014 114.025 9.56643V18.4301C114.025 19.0559 113.686 19.3881 113.057 19.3881H112.145C111.512 19.3881 111.177 19.0524 111.177 18.4301V9.56643C111.177 8.36014 110.735 7.67832 109.604 7.67832C108.473 7.67832 108.032 8.36014 108.032 9.56643V18.4301C108.032 19.0559 107.693 19.3881 107.064 19.3881H105.961C105.329 19.3881 104.993 19.0524 104.993 18.4301L104.989 18.4336Z" fill="#66AA3A"/>
<path id="Vector_8" d="M121.014 20.542V7.03846C121.014 5.67133 121.689 5.00349 123.071 5.00349H128.813C133.424 5.00349 134.806 7.8951 134.806 11.4406C134.806 15.7273 132.749 18.2867 128.65 18.2867C126.491 18.2867 125.007 17.5874 124.449 16.514H124.272V20.5385C124.272 21.1643 123.933 21.4965 123.304 21.4965H121.982C121.35 21.4965 121.014 21.1608 121.014 20.5385V20.542ZM127.756 15.3531C130.152 15.3531 131.618 14.2482 131.618 11.5035C131.618 8.75874 130.194 7.70979 127.77 7.70979H125.141C124.541 7.70979 124.276 7.95804 124.276 8.56643V12.7517C124.276 14.7727 126.053 15.3531 127.756 15.3531Z" fill="#66AA3A"/>
<path id="Vector_9" d="M135.936 12.2587C135.936 7.60839 138.375 4.71678 142.986 4.71678H143.516C148.099 4.71678 149.774 7.49301 149.774 10.965C149.774 12.4196 149.466 13.0874 148.099 13.0874H139.124C139.254 15.528 140.385 17.0105 144.382 17.0105H144.572C146.466 17.0105 147.555 16.7063 148.053 16.6469C148.537 16.5734 148.83 16.8951 148.83 17.3881V18.2762C148.83 19.3077 146.304 19.7587 144.117 19.7587H143.809C138.314 19.7587 135.936 16.8392 135.936 12.2587ZM146.922 10.7343C146.848 8.67133 145.88 7.49301 143.396 7.49301H143.131C140.781 7.49301 139.548 8.58391 139.194 10.7343H146.919H146.922Z" fill="#66AA3A"/>
<path id="Vector_10" d="M154.926 18.4336C154.926 19.0594 154.587 19.3916 153.958 19.3916H152.636C152.004 19.3916 151.668 19.0559 151.668 18.4336V5.96504C151.668 5.33916 152.007 5.00699 152.636 5.00699H153.855C154.473 5.00699 154.823 5.34266 154.855 5.95105L154.929 7.73776H155.385C156.106 5.95105 157.721 4.71329 160.145 4.71329C163.201 4.71329 165.226 6.7028 165.226 9.9021V10.6154C165.226 11.7343 164.728 12.1713 163.933 12.1713H163.198C162.477 12.1713 162.053 11.8217 162.053 11.2692V10.6434C162.053 8.41958 160.438 7.69231 158.806 7.69231C156.396 7.69231 154.929 9.23427 154.929 12.4021V18.4336H154.926Z" fill="#66AA3A"/>
<path id="Vector_11" d="M166.739 17.8671V17.3427C166.739 16.6014 167.297 16.2378 167.986 16.3986C168.809 16.5874 170.41 17.0105 172.905 17.0105C175.696 17.0105 176.445 16.5 176.445 15.2937C176.445 14.0874 175.77 13.8112 174.155 13.6084L171.336 13.2308C168.237 12.8252 166.696 11.6469 166.696 9.01748C166.696 6.1993 168.473 4.71678 173.113 4.71678C175.919 4.71678 178.664 5.26923 178.664 6.62238V7.12937C178.664 7.81119 178.208 8.16084 177.431 7.98601C176.565 7.7972 175.272 7.43356 173.053 7.43356C170.526 7.43356 169.837 7.92657 169.837 9.01748C169.837 10.1084 170.484 10.472 172.159 10.7028L175.11 11.0944C177.901 11.458 179.604 12.3007 179.604 15.2203C179.604 18.1399 178.018 19.7552 172.671 19.7552C169.749 19.7552 166.739 19.2168 166.739 17.8671Z" fill="#66AA3A"/>
<path id="Vector_12" d="M188.24 14.3217C189.781 14.3217 191 15.514 191 17.0385C191 18.5629 189.781 19.7692 188.24 19.7692C186.7 19.7692 185.495 18.5629 185.495 17.0385C185.495 15.514 186.714 14.3217 188.24 14.3217ZM186.933 10.6888L186.124 2.88462C185.961 1.43007 186.975 0.5 188.24 0.5C189.505 0.5 190.516 1.43007 190.357 2.88462L189.565 10.6888C189.491 11.3706 189.081 11.9825 188.389 11.9825H188.11C187.42 11.9825 187.007 11.3706 186.933 10.6888Z" fill="#66AA3A"/>
</g>
<defs>
<clipPath id="clip0_9_49">
<rect width="191" height="21" fill="white" transform="translate(0 0.5)"/>
</clipPath>
</defs>
</svg>
