<?xml version="1.0" encoding="UTF-8"?><svg id="Layer_2" xmlns="http://www.w3.org/2000/svg" viewBox="0 0 359.51 105.35"><defs><style>.cls-1{fill:#91fe4c;}.cls-1,.cls-2{stroke-width:0px;}.cls-2{fill:#fff;}</style></defs><g id="Layer_1-2"><path class="cls-1" d="m59.94,25.96v-.03c-.44-.83-1.62-1.8-2.75-1.71-1.96,0-4.47-.02-6.95-.01,2.52-7.68,5.5-16.77,5.79-17.7.64-2.47.7-5.31-2.38-6.28-1.8-.67-4.01.2-4.99,1.79-.97,1.54-3.82,6.09-7.12,11.35-3.28,5.24-7.63,12.19-10.48,16.73-.73,1.22-.81,3.13-.1,4.45v.03c.44.83,1.62,1.8,2.75,1.71,1.96,0,4.47.02,6.95.01-2.52,7.68-5.5,16.77-5.79,17.7-.64,2.47-.7,5.31,2.38,6.28,1.8.67,4.01-.2,4.99-1.79.97-1.54,3.82-6.09,7.12-11.35,3.28-5.24,7.63-12.19,10.48-16.73.73-1.23.81-3.13.1-4.45Z"/><path class="cls-1" d="m9.28,39.23c6.01-8.54,16.76-12.02,27.47-12.02,9.84,0,13.05-.67,20.46,5-7.7-6.87-11.92-6.98-22.86-6.98s-21.46,3.48-27.47,12.02C.85,45.82-2.87,59.08,2.82,74.11c.2.54.4,1.06.6,1.58-2.94-14.11.45-28.78,5.85-36.46Z"/><path class="cls-1" d="m81.95,60.56c.24,3.04-.14,7.04-.35,10.05-.54,7.69-3.17,15.13-7.75,20.53-6.57,7.75-16.79,11.46-27.84,11.42-8.2-.03-12.08-.66-16.82-1.92.95.82,4.71,2.87,9.41,3.78,1.81.35,5.02.91,8.98.93,18.76.07,34.3-13.7,35.61-32.41.32-4.57-.14-8.69-1.23-12.37Z"/><path class="cls-2" d="m63.37,56.99c0-7.11,3.94-11.66,11.73-11.66h12.87v-1.14c0-4.96-2.69-5.37-8.17-5.37-4.96,0-7.27.42-8.93.61-1.4.15-2.99-.83-2.99-2.88v-2.46c0-3.22,6.81-4.39,14.15-4.39,9.95,0,16.39,2.16,16.39,13.09v22.63c0,1.44-.87,2.5-2.42,2.5h-4.35c-1.36,0-2.35-.98-2.69-2.5l-.79-3.78c-1.74,3.86-5.11,7.23-11.47,7.23h-1.14c-7.04,0-12.19-3.71-12.19-11.88Zm15.63,3.71h1.06c4.12,0,7.91-2.01,7.91-6.62v-1.4h-10.1c-3.1,0-4.12,1.55-4.12,3.9s1.06,4.12,5.26,4.12Z"/><path class="cls-2" d="m115.14,83.55v-3.71c0-.45.3-.83.83-.76,4.09.61,6.24-.34,6.24-1.93,0-1.29-2.69-2.69-6.17-1.17-.53.23-.91,0-.91-.53v-3.9c0-.38.15-.68.38-.91l2.38-2.23c-9.95-1.74-16.05-8.51-16.05-19.49,0-10.26,5.26-19.22,18.39-19.22h1.59c9.16,0,15.33,4.39,15.33,11.84,0,3.37-1.32,5.71-4.62,5.71h-.19c-2.91,0-3.94-1.74-4.35-3.6-.68-2.65-2.76-4.43-6.89-4.43h-.38c-6.77,0-8.51,4.81-8.51,9.57,0,7.72,4.62,10.82,12.6,10.82,3.25,0,5.6-.53,7.95-1.29,1.93-.61,3.22.42,3.22,2.57v2.46c0,1.85-.95,2.91-2.42,3.56-2.84,1.29-6.09,1.82-9.31,1.93l-1.78,1.55c3.41.26,6.85,2.42,6.85,6.28,0,6.77-6.89,8.78-13.51,7.68-.45-.08-.68-.38-.68-.83Z"/><path class="cls-2" d="m139.51,56.99c0-7.11,3.94-11.66,11.73-11.66h12.87v-1.14c0-4.96-2.69-5.37-8.17-5.37-4.96,0-7.27.42-8.93.61-1.4.15-2.99-.83-2.99-2.88v-2.46c0-3.22,6.81-4.39,14.15-4.39,9.95,0,16.39,2.16,16.39,13.09v22.63c0,1.44-.87,2.5-2.42,2.5h-4.35c-1.36,0-2.35-.98-2.69-2.5l-.79-3.78c-1.74,3.86-5.11,7.23-11.47,7.23h-1.14c-7.04,0-12.19-3.71-12.19-11.88Zm15.63,3.71h1.06c4.12,0,7.91-2.01,7.91-6.62v-1.4h-10.1c-3.1,0-4.12,1.55-4.12,3.9s1.06,4.12,5.26,4.12Z"/><path class="cls-2" d="m184.1,54.98v-12.64c0-2.16-.79-2.88-2.95-2.88h0c-1.74,0-3.14-1.44-3.14-3.14v-2.72c0-1.74,1.4-3.14,3.14-3.14h5.3c5.79,0,8.33,2.54,8.33,8.33v14.53c0,3.78,2.04,5.9,5.87,5.9h2.95c1.74,0,3.1,1.4,3.1,3.1v2.5c0,1.74-1.36,3.1-3.1,3.1h-6.89c-8.14,0-12.6-4.84-12.6-12.94Zm3.07-40.91c.83-1.74,2.5-2.91,4.43-2.91h2.95c2.12,0,3.18,1.4,2.38,3.14l-2.65,5.64c-.83,1.74-2.16,2.95-4.5,2.95h-2.95c-2.12,0-3.14-1.44-2.31-3.14l2.65-5.68Z"/><path class="cls-1" d="m213.54,67.4v-32.23c0-3.1,1.55-4.65,4.65-4.65h13.29c10.88,0,14.12,6.89,14.12,15.25,0,10.3-4.99,16.25-14.67,16.25-5.23,0-8.88-1.76-10.19-4.2h-.38v9.57c0,1.41-.79,2.2-2.2,2.2h-2.41c-1.41,0-2.2-.79-2.2-2.2Zm15.63-11.64c5.96,0,9.78-2.79,9.78-9.88s-3.65-9.57-9.71-9.57h-6.96c-1.38,0-1.93.59-1.93,1.93v10.85c0,5.06,4.3,6.68,8.82,6.68Z"/><path class="cls-1" d="m257.2,32.73v17.18c0,5.44,1.45,9.09,8.23,9.09s9.06-3.65,9.06-9.09v-17.18c0-1.41.79-2.2,2.2-2.2h2.41c1.41,0,2.2.79,2.2,2.2v29.68c0,1.41-.79,2.2-2.2,2.2h-2.17c-1.41,0-2.2-.76-2.27-2.17l-.17-3.75h-.72c-1.58,3.86-4.44,6.61-11.33,6.61-9.23,0-12.05-5.03-12.05-13.36v-19.21c0-1.41.79-2.2,2.2-2.2h2.41c1.41,0,2.2.79,2.2,2.2Z"/><path class="cls-1" d="m286.5,62.41v-29.68c0-1.41.79-2.2,2.2-2.2h1.72c1.41,0,2.17.72,2.24,2.13l.1,2.27h.48c.9-3.51,3.13-5.1,6.71-5.1s5.23,1.62,6.4,5.1h.38c1.1-3.51,3.55-5.1,7.23-5.1,5.17,0,7.78,3.27,7.78,10.4v22.18c0,1.41-.79,2.2-2.2,2.2h-2c-1.41,0-2.2-.79-2.2-2.2v-21.21c0-3.27-1.14-5.1-4.06-5.1s-4.17,1.82-4.17,5.1v21.21c0,1.41-.76,2.2-2.2,2.2h-1.62c-1.41,0-2.17-.79-2.17-2.2v-21.21c0-3.27-1.21-5.1-4.13-5.1s-4.1,1.82-4.1,5.1v21.21c0,1.41-.79,2.2-2.2,2.2h-2c-1.41,0-2.2-.79-2.2-2.2Z"/><path class="cls-1" d="m327.45,67.4v-32.23c0-3.1,1.55-4.65,4.65-4.65h13.29c10.88,0,14.12,6.89,14.12,15.25,0,10.3-4.99,16.25-14.67,16.25-5.23,0-8.88-1.76-10.19-4.2h-.38v9.57c0,1.41-.79,2.2-2.2,2.2h-2.41c-1.41,0-2.2-.79-2.2-2.2Zm15.63-11.64c5.96,0,9.78-2.79,9.78-9.88s-3.65-9.57-9.71-9.57h-6.96c-1.38,0-1.93.59-1.93,1.93v10.85c0,5.06,4.3,6.68,8.82,6.68Z"/></g></svg>