<svg width="122" height="23" viewBox="0 0 122 23" fill="none" xmlns="http://www.w3.org/2000/svg">
<g id="Layer_1" clip-path="url(#clip0_52_5208)">
<path id="Vector" d="M0 10.5479C0 2.9041 2.51397 0 7.67188 0C12.8298 0 15.3438 2.9041 15.3438 10.5479C15.3438 18.1916 12.8298 21.0957 7.67188 21.0957C2.51397 21.0957 0 18.1916 0 10.5479ZM7.67188 17.5925C10.2341 17.5925 11.8866 16.3408 11.8866 10.5479C11.8866 4.75494 10.2824 3.50324 7.67188 3.50324C5.06136 3.50324 3.45717 4.75494 3.45717 10.5479C3.45717 16.3408 5.10964 17.5925 7.67188 17.5925Z" fill="#964DFF"/>
<path id="Vector_2" d="M15.7893 12.8795C15.7893 8.07497 18.6746 4.67859 23.2124 4.67859H23.9216C28.4594 4.67859 31.3447 8.07116 31.3447 12.8795C31.3447 17.6879 28.4594 21.0957 23.9216 21.0957H23.2272C18.6746 21.0957 15.7893 17.6841 15.7893 12.8795ZM23.2607 17.8291H23.8771C26.4542 17.8291 27.999 15.8447 27.999 12.8795C27.999 9.91436 26.4542 7.94522 23.8771 7.94522H23.2607C20.6836 7.94522 19.1388 9.91054 19.1388 12.8795C19.1388 15.8485 20.6836 17.8291 23.2607 17.8291Z" fill="#964DFF"/>
<path id="Vector_3" d="M32.4143 21.9544V7.21637C32.4143 5.72425 33.1236 4.99536 34.5755 4.99536H40.6098C45.4558 4.99536 46.9077 8.15133 46.9077 12.0209C46.9077 16.6995 44.7465 19.493 40.439 19.493C38.1701 19.493 36.6104 18.7297 36.0237 17.5582H35.8381V21.9506C35.8381 22.6337 35.4816 22.9962 34.8206 22.9962H33.4318C32.7671 22.9962 32.4143 22.6298 32.4143 21.9506V21.9544ZM39.4995 16.2912C42.0172 16.2912 43.5582 15.0853 43.5582 12.0896C43.5582 9.09392 42.0617 7.94907 39.5143 7.94907H36.7516C36.1203 7.94907 35.8418 8.22002 35.8418 8.88403V13.452C35.8418 15.6577 37.7096 16.2912 39.4995 16.2912Z" fill="#964DFF"/>
<path id="Vector_4" d="M48.6678 19.035V18.4626C48.6678 17.6536 49.2546 17.2567 49.9787 17.4322C50.8439 17.6383 52.5261 18.1001 55.1477 18.1001C58.0813 18.1001 58.8686 17.5429 58.8686 16.2263C58.8686 14.9097 58.1593 14.6083 56.4623 14.3869L53.499 13.9748C50.2423 13.5321 48.6233 12.2461 48.6233 9.37631C48.6233 6.30049 50.4911 4.68243 55.3668 4.68243C58.3153 4.68243 61.2006 5.28539 61.2006 6.76224V7.31558C61.2006 8.05974 60.7215 8.44135 59.9046 8.25054C58.9948 8.04447 57.6357 7.64759 55.3037 7.64759C52.6486 7.64759 51.9245 8.18567 51.9245 9.37631C51.9245 10.567 52.6041 10.9638 54.3642 11.2157L57.4649 11.6431C60.3985 12.04 62.1883 12.9597 62.1883 16.1462C62.1883 19.3327 60.521 21.0957 54.9026 21.0957C51.8317 21.0957 48.6678 20.5081 48.6678 19.035Z" fill="#964DFF"/>
<path id="Vector_5" d="M71.2637 15.1654C72.8828 15.1654 74.1639 16.4667 74.1639 18.1306C74.1639 19.7944 72.8828 21.111 71.2637 21.111C69.6447 21.111 68.3784 19.7944 68.3784 18.1306C68.3784 16.4667 69.6595 15.1654 71.2637 15.1654ZM69.8898 11.2004L69.0394 2.68276C68.8686 1.09524 69.9343 0.0801392 71.2637 0.0801392C72.5931 0.0801392 73.6552 1.09524 73.4881 2.68276L72.6563 11.2004C72.5783 11.9446 72.1475 12.6124 71.4197 12.6124H71.1263C70.4022 12.6124 69.9678 11.9446 69.8898 11.2004Z" fill="#964DFF"/>
<path id="Vector_6" d="M84.1233 17.9855C84.1233 16.2416 85.4675 14.8601 87.1646 14.8601C88.8616 14.8601 90.2058 16.2416 90.2058 17.9855C90.2058 19.7295 88.8616 21.111 87.1646 21.111C85.4675 21.111 84.1233 19.7295 84.1233 17.9855Z" fill="#964DFF"/>
<path id="Vector_7" d="M100.021 17.9855C100.021 16.2416 101.365 14.8601 103.062 14.8601C104.759 14.8601 106.103 16.2416 106.103 17.9855C106.103 19.7295 104.759 21.111 103.062 21.111C101.365 21.111 100.021 19.7295 100.021 17.9855Z" fill="#964DFF"/>
<path id="Vector_8" d="M115.921 17.9855C115.921 16.2416 117.265 14.8601 118.962 14.8601C120.659 14.8601 122.004 16.2416 122.004 17.9855C122.004 19.7295 120.659 21.111 118.962 21.111C117.265 21.111 115.921 19.7295 115.921 17.9855Z" fill="#964DFF"/>
</g>
<defs>
<clipPath id="clip0_52_5208">
<rect width="122" height="23" fill="white"/>
</clipPath>
</defs>
</svg>
