<svg width="50" height="50" viewBox="0 0 50 50" fill="none" xmlns="http://www.w3.org/2000/svg">
<circle cx="25" cy="25" r="25" fill="#592299"/>
<circle cx="25" cy="25" r="23.7013" fill="#431C70"/>
<circle cx="25" cy="25" r="21.7532" fill="#592299"/>
<path d="M29.9139 15.3558L29.9085 15.3476C29.7778 15.0944 29.4183 14.8031 29.0753 14.8276C28.479 14.8276 27.7166 14.8221 26.9623 14.8248C27.7302 12.4913 28.6369 9.72491 28.7213 9.44445C28.9146 8.69566 28.9337 7.82978 27.9997 7.53571C27.4524 7.33422 26.7799 7.59835 26.4831 8.07758C26.1863 8.54591 25.3232 9.92641 24.3211 11.5302C23.3218 13.1231 22.0013 15.236 21.1354 16.6165C20.9121 16.9895 20.8903 17.5695 21.1054 17.9698L21.1109 17.9779C21.2416 18.2312 21.601 18.5225 21.9441 18.498C22.5404 18.498 23.3028 18.5035 24.057 18.5007C23.2892 20.8342 22.3824 23.6007 22.298 23.8811C22.1047 24.6299 22.0857 25.4958 23.0196 25.7899C23.5669 25.9914 24.2395 25.7272 24.5363 25.248C24.8331 24.7797 25.6962 23.3992 26.6982 21.7954C27.6975 20.2025 29.0181 18.0896 29.884 16.7091C30.1073 16.336 30.129 15.7561 29.9139 15.3558Z" fill="#91FE4C"/>
<path d="M14.5107 19.3911C16.3377 16.7935 19.6052 15.7343 22.8644 15.7343C25.8569 15.7343 26.8317 15.5301 29.0862 17.2564C26.7445 15.1679 25.4621 15.1325 22.1347 15.1325C18.8074 15.1325 15.608 16.1917 13.7809 18.7894C11.9457 21.3951 10.8157 25.4277 12.5475 29.9967C12.6101 30.1601 12.67 30.318 12.7299 30.4759C11.8368 26.1847 12.866 21.7246 14.5079 19.3911H14.5107Z" fill="#91FE4C"/>
<path d="M36.6068 25.877C36.6803 26.8028 36.5659 28.0172 36.5006 28.9321C36.3372 31.2683 35.5367 33.531 34.1453 35.1729C32.1494 37.5282 29.0399 38.6554 25.6799 38.6446C23.1857 38.6364 22.0067 38.4458 20.5663 38.0591C20.8549 38.3069 21.9985 38.9305 23.4281 39.2082C23.9781 39.3144 24.9529 39.4859 26.1564 39.4914C31.8581 39.5132 36.585 35.3254 36.9825 29.6373C37.0806 28.2486 36.939 26.9961 36.6068 25.877Z" fill="#91FE4C"/>
</svg>
