<?xml version="1.0" encoding="UTF-8"?>
<svg id="Layer_2" data-name="Layer 2" xmlns="http://www.w3.org/2000/svg" viewBox="0 0 349.34 509.2">
  <defs>
    <style>
      .cls-1 {
        fill: #592299;
        stroke-width: 0px;
      }
    </style>
  </defs>
  <g id="Layer_1-2" data-name="Layer 1">
    <path class="cls-1" d="m0,0v509.2h349.34V0H0Zm199.43,244.06c-4.91,7.81-12.38,19.78-18.03,28.79-5.68,9.06-10.57,16.88-12.24,19.54-1.68,2.72-5.49,4.22-8.58,3.07-5.3-1.66-5.18-6.56-4.09-10.81.49-1.59,5.62-17.25,9.96-30.46-4.27.01-8.58-.01-11.96-.02-1.94.14-3.97-1.52-4.71-2.95l-.02-.04c-1.23-2.27-1.1-5.56.17-7.67,4.91-7.81,12.39-19.78,18.03-28.79,5.68-9.06,10.57-16.88,12.24-19.54,1.68-2.72,5.49-4.22,8.58-3.07,5.3,1.66,5.18,6.56,4.09,10.81-.49,1.59-5.62,17.25-9.96,30.46,4.27-.01,8.58.01,11.96.02,1.94-.14,3.97,1.52,4.71,2.95l.02.04c1.23,2.27,1.1,5.56-.17,7.67Z"/>
  </g>
</svg>