<?xml version="1.0" encoding="UTF-8"?><svg id="Layer_2" xmlns="http://www.w3.org/2000/svg" viewBox="0 0 54.56 107.12"><defs><style>.cls-1{fill:#592299;stroke-width:0px;}</style></defs><g id="Layer_1-2"><path class="cls-1" d="m15.42,107.12c-.94,0-1.88-.16-2.77-.48-3.45-1.08-7.19-4.17-5.02-12.59.56-1.82,6.64-20.36,9.34-28.58-2.36,0-4.69,0-6.82-.01h-3.02c-2.5.15-5.06-1.79-6.09-3.76-1.46-2.71-1.38-6.55.19-9.17,2.91-4.63,6.7-10.68,10.48-16.72,2.63-4.2,5.25-8.4,7.57-12.09l4.23-6.75c3.78-6.03,6.78-10.83,8.02-12.79,2.12-3.43,6.68-5.05,10.37-3.68,3.45,1.08,7.19,4.17,5.02,12.59-.56,1.83-6.64,20.37-9.34,28.58,2.4,0,4.78,0,6.93.01h2.91c2.51-.15,5.07,1.79,6.09,3.76l-1.31.73,1.32-.71c1.45,2.69,1.37,6.53-.2,9.15-2.91,4.64-6.71,10.7-10.49,16.74-2.63,4.19-5.25,8.38-7.56,12.07l-4.23,6.75c-3.78,6.03-6.78,10.83-8.02,12.79-1.61,2.6-4.63,4.16-7.61,4.16Zm5.7-44.67l-.65,1.97c-5.84,17.77-9.56,29.15-9.95,30.43-1.68,6.52.77,8.21,3.1,8.94,2.4.89,5.5-.24,6.86-2.43,1.25-1.98,4.25-6.77,8.02-12.8l4.23-6.75c2.31-3.69,4.93-7.88,7.56-12.07,3.78-6.05,7.58-12.11,10.48-16.72,1.01-1.68,1.07-4.39.12-6.14l-.02-.03c-.57-1.11-2.13-2.28-3.29-2.18h-.11s-2.96,0-2.96,0c-2.77,0-5.89-.02-8.99-.01h-2.08s.65-1.97.65-1.97c2.19-6.66,9.37-28.52,9.95-30.43,1.68-6.52-.77-8.21-3.1-8.94-2.39-.88-5.5.24-6.86,2.43-1.25,1.98-4.25,6.77-8.02,12.8l-4.23,6.75c-2.32,3.7-4.94,7.89-7.57,12.09-3.78,6.04-7.57,12.09-10.46,16.7-1.01,1.68-1.07,4.4-.12,6.15.59,1.13,2.13,2.3,3.31,2.21h.11s3.08,0,3.08,0c2.74,0,5.81.02,8.88.01h2.08Z"/></g></svg>