<?xml version="1.0" encoding="UTF-8"?><svg id="Layer_2" xmlns="http://www.w3.org/2000/svg" viewBox="0 0 51.56 104.12"><defs><style>.cls-1{fill:#592299;stroke-width:0px;}</style></defs><g id="Layer_1-2"><path class="cls-1" d="m50.71,44.67l-.02-.04c-.74-1.43-2.77-3.09-4.71-2.95-3.38,0-7.69-.03-11.96-.02,4.34-13.21,9.47-28.87,9.96-30.46,1.09-4.24,1.21-9.15-4.09-10.81-3.1-1.15-6.9.35-8.58,3.07-1.68,2.66-6.57,10.47-12.24,19.54-5.65,9.01-13.12,20.98-18.03,28.79-1.26,2.11-1.39,5.39-.17,7.67l.02.04c.74,1.43,2.77,3.09,4.71,2.95,3.38,0,7.69.03,11.96.02-4.34,13.21-9.47,28.87-9.96,30.46-1.09,4.24-1.21,9.15,4.09,10.81,3.1,1.15,6.9-.35,8.58-3.07,1.68-2.66,6.57-10.47,12.24-19.54,5.65-9.01,13.12-20.98,18.03-28.79,1.26-2.11,1.39-5.39.17-7.67Z"/></g></svg>